<svg width="24" height="24" viewBox="0 0 24 24" fill="none" xmlns="http://www.w3.org/2000/svg">
<mask id="mask0_1497_25544" style="mask-type:alpha" maskUnits="userSpaceOnUse" x="0" y="0" width="24" height="24">
<rect width="24" height="24" fill="#D9D9D9"/>
</mask>
<g mask="url(#mask0_1497_25544)">
<path d="M16.9998 8.4L6.0998 19.3C5.91647 19.4833 5.68314 19.575 5.3998 19.575C5.11647 19.575 4.88314 19.4833 4.6998 19.3C4.51647 19.1167 4.4248 18.8833 4.4248 18.6C4.4248 18.3167 4.51647 18.0833 4.6998 17.9L15.5998 7H9.9998C9.71647 7 9.47897 6.90417 9.2873 6.7125C9.09564 6.52083 8.9998 6.28333 8.9998 6C8.9998 5.71667 9.09564 5.47917 9.2873 5.2875C9.47897 5.09583 9.71647 5 9.9998 5H17.9998C18.2831 5 18.5206 5.09583 18.7123 5.2875C18.904 5.47917 18.9998 5.71667 18.9998 6V14C18.9998 14.2833 18.904 14.5208 18.7123 14.7125C18.5206 14.9042 18.2831 15 17.9998 15C17.7165 15 17.479 14.9042 17.2873 14.7125C17.0956 14.5208 16.9998 14.2833 16.9998 14V8.4Z" fill="white" fill-opacity="0.54"/>
</g>
</svg>
