<svg width="12" height="12" viewBox="0 0 12 12" fill="none" xmlns="http://www.w3.org/2000/svg">
<path d="M11.9539 4.51343C11.9015 4.34266 11.8041 4.19076 11.6727 4.07517C11.5413 3.95959 11.3813 3.885 11.2111 3.85997L8.18055 3.40055L6.82517 0.535739C6.74921 0.374945 6.63162 0.239544 6.48572 0.144863C6.33981 0.050181 6.17141 0 5.99958 0C5.82774 0 5.65934 0.050181 5.51343 0.144863C5.36753 0.239544 5.24994 0.374945 5.17398 0.535739L3.8186 3.40055L0.788037 3.85997C0.61811 3.88583 0.458499 3.96074 0.327226 4.07624C0.195954 4.19173 0.0982486 4.34321 0.0451439 4.51357C-0.0079608 4.68394 -0.0143497 4.8664 0.0266987 5.04035C0.067747 5.2143 0.154597 5.37281 0.277443 5.49799L2.47102 7.72813L1.95322 10.8765C1.9237 11.0532 1.94229 11.235 2.00687 11.4012C2.07145 11.5675 2.17943 11.7115 2.31854 11.8169C2.45766 11.9223 2.62233 11.9849 2.79384 11.9976C2.96536 12.0103 3.13684 11.9725 3.28881 11.8886L5.99958 10.402L8.71034 11.8886C8.86238 11.9717 9.03366 12.0089 9.20486 11.9959C9.37607 11.9829 9.54039 11.9202 9.67927 11.815C9.81816 11.7097 9.92608 11.5661 9.99087 11.4003C10.0557 11.2344 10.0747 11.053 10.0459 10.8765L9.52813 7.72813L11.7217 5.49737C11.8452 5.37272 11.9324 5.21429 11.9735 5.04025C12.0146 4.86621 12.0078 4.68362 11.9539 4.51343Z" fill="white" fill-opacity="0.54"/>
</svg>
